# xmcd CD database file
# Copyright (C) 1995-1998 Ti Kan
#
# Track frame offsets:
#	150
#	14938
#	34172
#	57224
#	76890
#	90092
#	111009
#	131132
#	158131
#	181261
#	198758
#	217144
#	227089
#	245310
#
# Disc length: 3445 seconds
#
# Revision: 1
# Processed by: cddbd v1.4PL0 Copyright (c) Steve Scherf et al.
# Submitted via: CDex 1.30Release
#
DISCID=b40d730e
DTITLE=Kvinton - Lovci srece
DYEAR=2000
DGENRE=Blues
TTITLE0=Dotik ljubezni
TTITLE1=Dekle z leseno nogo
TTITLE2=Gustl
TTITLE3=Ce jo srecas
TTITLE4=Mati je cerko pitala
TTITLE5=Koca strica Toma
TTITLE6=Lovci srece
TTITLE7=Jesenski blues
TTITLE8=Ladja za Argentino
TTITLE9=Love will tear us apart
TTITLE10=Svet se kar vrti
TTITLE11=Pesjanska
TTITLE12=Mirno zaspi
TTITLE13=Mati je cerko pitala - Kvinton mix
EXTD=YEAR: 2000 ID3G:   0
EXTT0=
EXTT1=
EXTT2=
EXTT3=
EXTT4=
EXTT5=
EXTT6=
EXTT7=
EXTT8=
EXTT9=
EXTT10=
EXTT11=
EXTT12=
EXTT13=
PLAYORDER=
